<svg width="697" height="627" viewBox="0 0 697 627" fill="none" xmlns="http://www.w3.org/2000/svg">
<path d="M284.083 43.1963C312.966 -6.72262 385.034 -6.72264 413.917 43.1963L684.842 511.439C713.772 561.439 677.692 624 619.925 624H78.0747C20.3084 624 -15.772 561.439 13.1579 511.439L284.083 43.1963Z" fill="white"/>
<path d="M528.399 471.047C449.353 477.805 330.099 468.501 346.085 295.422" stroke="#FFAB1B" stroke-width="37" stroke-linecap="round"/>
<path d="M337.067 238.453C342.526 228.795 356.514 229.02 361.659 238.849L393.843 300.332C398.769 309.741 391.834 320.994 381.215 320.823L314.886 319.756C304.267 319.586 297.697 308.116 302.923 298.87L337.067 238.453Z" fill="#FF8F0E"/>
</svg>
