<svg width="256" height="256" viewBox="0 0 256 256" fill="none" xmlns="http://www.w3.org/2000/svg">
<path d="M19.5 163V93.1818H38.4545V120.455H63.5455V93.1818H82.5V163H63.5455V135.727H38.4545V163H19.5ZM91.5 163V93.1818H121.636C126.818 93.1818 131.352 94.125 135.239 96.0114C139.125 97.8977 142.148 100.614 144.307 104.159C146.466 107.705 147.545 111.955 147.545 116.909C147.545 121.909 146.432 126.125 144.205 129.557C142 132.989 138.898 135.58 134.898 137.33C130.92 139.08 126.273 139.955 120.955 139.955H102.955V125.227H117.136C119.364 125.227 121.261 124.955 122.83 124.409C124.42 123.841 125.636 122.943 126.477 121.716C127.341 120.489 127.773 118.886 127.773 116.909C127.773 114.909 127.341 113.284 126.477 112.034C125.636 110.761 124.42 109.83 122.83 109.239C121.261 108.625 119.364 108.318 117.136 108.318H110.455V163H91.5ZM132.409 130.955L149.864 163H129.273L112.227 130.955H132.409ZM155.625 93.1818H179.216L195.443 132.727H196.261L212.489 93.1818H236.08V163H217.534V122.636H216.989L201.443 162.455H190.261L174.716 122.364H174.17V163H155.625V93.1818Z" fill="white"/>
</svg>
