<svg width="1417" height="1417" viewBox="0 0 1417 1417" fill="none" xmlns="http://www.w3.org/2000/svg">
<g clip-path="url(#clip0_2117_4)">
<path d="M890.068 1167.39C845.547 1167.39 811.758 1153.07 788.702 1124.45C766.441 1095.04 751.335 1040.58 743.385 961.075C738.615 919.733 733.845 866.068 729.075 800.081C673.422 816.776 617.373 834.267 560.926 852.553L520.379 964.652C512.429 986.118 506.863 1001.62 503.683 1011.16C500.503 1019.91 494.54 1033.42 485.795 1051.71C477.845 1069.99 470.689 1083.51 464.329 1092.25C458.764 1100.2 450.416 1110.54 439.286 1123.26C428.95 1135.98 418.217 1145.12 407.087 1150.69C378.466 1165 347.857 1172.16 315.261 1172.16C282.665 1172.16 256.031 1160.63 235.36 1137.57C215.484 1113.72 205.547 1084.7 205.547 1050.52C205.547 1040.98 206.342 1031.04 207.932 1020.7C218.267 944.379 296.578 874.814 442.863 812.006C484.205 706.267 552.975 528.18 649.174 277.745C674.615 263.435 706.814 256.279 745.77 256.279C754.516 256.279 762.863 256.279 770.814 256.279C778.764 256.279 788.304 256.279 799.435 256.279C811.36 256.279 826.068 258.665 843.559 263.435C844.354 300.801 862.64 532.553 898.416 958.689C901.596 994.466 905.969 1017.92 911.534 1029.05C917.099 1039.39 926.64 1044.55 940.155 1044.55C962.416 1044.55 991.832 1029.45 1028.4 999.236C1065.77 969.025 1099.16 931.261 1128.58 885.944L1161.97 967.037L1133.35 1005.2C1049.87 1113.32 968.776 1167.39 890.068 1167.39ZM700.453 463.783L596.702 753.571C652.354 734.491 693.696 720.578 720.727 711.832L700.453 463.783ZM401.124 915.758C327.186 953.124 290.217 989.696 290.217 1025.47C290.217 1050.91 299.758 1063.63 318.839 1063.63C333.149 1063.63 344.677 1053.3 353.422 1032.63C363.758 1010.37 379.658 971.41 401.124 915.758Z" fill="url(#paint0_linear_2117_4)"/>
</g>
<defs>
<linearGradient id="paint0_linear_2117_4" x1="591.466" y1="1341.74" x2="1373.5" y2="1227.54" gradientUnits="userSpaceOnUse">
<stop stop-color="white"/>
<stop offset="0.740909" stop-color="#C8D7E8"/>
</linearGradient>
<clipPath id="clip0_2117_4">
<rect width="1417" height="1417" fill="white"/>
</clipPath>
</defs>
</svg>
