<svg xmlns="http://www.w3.org/2000/svg" viewBox="0 0 184.47 142.35"><defs><style>.cls-1{fill:#955f26;}</style></defs><g id="Layer_2" data-name="Layer 2"><g id="Layer_1-2" data-name="Layer 1"><path class="cls-1" d="M113.28,58.35l-.39.39A5.93,5.93,0,0,0,114,55.35a6,6,0,0,0-10.36-4.22L57.42,98.44,46.35,109.78,0,64.43,58.42,4.7a15.6,15.6,0,0,1,22.07-.25l20.57,20.13,12,11.7A15.62,15.62,0,0,1,113.28,58.35Z"/><path class="cls-1" d="M180,62.89,102.3,142.35,96,136.15l79.36-80.8a6,6,0,0,0-8.64-8.45L87.34,127.71,66.06,106.89l-.13-.12,47-48A5.93,5.93,0,0,0,114,55.35a6,6,0,0,0-10.36-4.22L57.42,98.44,42.8,84.14l58.26-59.56L120.5,4.7a15.63,15.63,0,0,1,22.1-.25l37.16,36.36A15.6,15.6,0,0,1,180,62.89Z"/></g></g></svg>