<svg
	width="256"
	height="256"
	viewBox="0 0 256 256"
	fill="none"
	xmlns="http://www.w3.org/2000/svg"
>
	<title>Reboot</title>
	<g clip-path="url(#clip0_2235_18)">
		<rect width="256" height="256" rx="34" fill="#6FB036" />
		<path
			d="M111.158 52H58.3599C54.2951 52 51 55.2951 51 59.3599V112.158C51 116.223 54.2951 119.518 58.3599 119.518H111.158C115.223 119.518 118.518 116.223 118.518 112.158V59.3599C118.518 55.2951 115.223 52 111.158 52Z"
			fill="#D1EBAB"
		/>
		<path
			d="M196.64 52H143.842C139.777 52 136.482 55.2951 136.482 59.3599V112.158C136.482 116.223 139.777 119.518 143.842 119.518H196.64C200.705 119.518 204 116.223 204 112.158V59.3599C204 55.2951 200.705 52 196.64 52Z"
			fill="#D1EBAB"
		/>
		<path
			d="M111.158 137.482H58.3599C54.2951 137.482 51 140.777 51 144.842V197.64C51 201.705 54.2951 205 58.3599 205H111.158C115.223 205 118.518 201.705 118.518 197.64V144.842C118.518 140.777 115.223 137.482 111.158 137.482Z"
			fill="white"
		/>
		<path
			d="M170.241 205C188.885 205 204 189.886 204 171.241C204 152.596 188.885 137.482 170.241 137.482C151.596 137.482 136.482 152.596 136.482 171.241C136.482 189.886 151.596 205 170.241 205Z"
			fill="#D1EBAB"
		/>
	</g>
	<defs>
		<clipPath id="clip0_2235_18">
			<rect width="256" height="256" fill="white" />
		</clipPath>
	</defs>
</svg>
