<svg width="711" height="263" viewBox="0 0 711 263" fill="none" xmlns="http://www.w3.org/2000/svg">
<mask id="mask0_2165_64" style="mask-type:alpha" maskUnits="userSpaceOnUse" x="0" y="0" width="711" height="137">
<rect width="9" height="137" fill="#D9D9D9"/>
<rect x="18" width="27" height="137" fill="#D9D9D9"/>
<rect x="54" width="9" height="137" fill="#D9D9D9"/>
<rect x="90" width="9" height="137" fill="#D9D9D9"/>
<rect x="108" width="27" height="137" fill="#D9D9D9"/>
<rect x="144" width="27" height="137" fill="#D9D9D9"/>
<rect x="198" width="9" height="137" fill="#D9D9D9"/>
<rect x="216" width="9" height="137" fill="#D9D9D9"/>
<rect x="234" width="9" height="137" fill="#D9D9D9"/>
<rect x="252" width="27" height="137" fill="#D9D9D9"/>
<rect x="288" width="27" height="137" fill="#D9D9D9"/>
<rect x="324" width="10" height="137" fill="#D9D9D9"/>
<rect x="342" width="10" height="137" fill="#D9D9D9"/>
<rect x="360" width="10" height="137" fill="#D9D9D9"/>
<rect x="396" width="27" height="137" fill="#D9D9D9"/>
<rect x="432" width="27" height="137" fill="#D9D9D9"/>
<rect x="467" width="10" height="137" fill="#D9D9D9"/>
<rect x="486" width="9" height="137" fill="#D9D9D9"/>
<rect x="504" width="10" height="137" fill="#D9D9D9"/>
<rect x="540" width="27" height="137" fill="#D9D9D9"/>
<rect x="576" width="27" height="137" fill="#D9D9D9"/>
<rect x="630" width="9" height="137" fill="#D9D9D9"/>
<rect x="666" width="9" height="137" fill="#D9D9D9"/>
<rect x="684" width="27" height="137" fill="#D9D9D9"/>
<rect x="648" width="9" height="137" fill="#D9D9D9"/>
</mask>
<g mask="url(#mask0_2165_64)">
<rect x="-1" width="721" height="137" fill="url(#paint0_linear_2165_64)"/>
</g>
<path d="M168.588 261V171.4H196.748C206.732 171.4 214.199 173.405 219.148 177.416C224.097 181.341 226.572 186.973 226.572 194.312C226.572 199.261 225.164 203.357 222.348 206.6C219.617 209.843 215.863 211.805 211.084 212.488C217.143 213.512 221.836 215.944 225.164 219.784C228.492 223.624 230.156 228.403 230.156 234.12C230.156 242.227 227.127 248.755 221.068 253.704C215.009 258.568 206.604 261 195.852 261H168.588ZM186.252 246.28H198.924C203.02 246.28 206.305 245.213 208.78 243.08C211.255 240.861 212.492 237.917 212.492 234.248C212.492 230.493 211.084 227.251 208.268 224.52C205.537 221.704 201.527 220.296 196.236 220.296H186.252V246.28ZM197.388 186.12H186.252V205.704H196.108C199.436 205.704 202.38 204.68 204.94 202.632C207.585 200.584 208.908 197.939 208.908 194.696C208.908 189.405 205.068 186.547 197.388 186.12ZM301.953 253.32C296.236 258.952 287.958 261.768 277.121 261.768C266.284 261.768 258.006 258.952 252.289 253.32C246.572 247.603 243.713 239.155 243.713 227.976V171.4H262.401V229.512C262.401 235.144 263.638 239.496 266.113 242.568C268.673 245.555 272.3 247.048 276.993 247.048C281.686 247.048 285.313 245.555 287.873 242.568C290.518 239.496 291.841 235.144 291.841 229.512V171.4H310.529V227.976C310.529 239.155 307.67 247.603 301.953 253.32ZM393.225 261H372.233L352.393 219.656L347.273 225.416V261H328.713V171.4H347.145V204.168L371.721 171.4H393.737L365.321 205.448L393.225 261ZM466.6 261H445.608L425.768 219.656L420.648 225.416V261H402.088V171.4H420.52V204.168L445.096 171.4H467.112L438.696 205.448L466.6 261ZM533.703 253.32C527.986 258.952 519.708 261.768 508.871 261.768C498.034 261.768 489.756 258.952 484.039 253.32C478.322 247.603 475.463 239.155 475.463 227.976V171.4H494.151V229.512C494.151 235.144 495.388 239.496 497.863 242.568C500.423 245.555 504.05 247.048 508.743 247.048C513.436 247.048 517.063 245.555 519.623 242.568C522.268 239.496 523.591 235.144 523.591 229.512V171.4H542.279V227.976C542.279 239.155 539.42 247.603 533.703 253.32Z" fill="url(#paint1_linear_2165_64)"/>
<defs>
<linearGradient id="paint0_linear_2165_64" x1="7.5" y1="152.222" x2="701.571" y2="-86.8975" gradientUnits="userSpaceOnUse">
<stop stop-color="white"/>
<stop offset="0.75" stop-color="white"/>
</linearGradient>
<linearGradient id="paint1_linear_2165_64" x1="35.5" y1="261" x2="717" y2="-1.00004" gradientUnits="userSpaceOnUse">
<stop stop-color="white"/>
<stop offset="0.75" stop-color="white"/>
</linearGradient>
</defs>
</svg>
