<svg xmlns="http://www.w3.org/2000/svg" viewBox="0 0 317.25 317.25"><defs><style>.cls-1{fill:#fff;}</style></defs><g id="Layer_2" data-name="Layer 2"><g id="Layer_1-2" data-name="Layer 1"><path class="cls-1" d="M158.63,0A158.63,158.63,0,1,0,317.25,158.63,158.63,158.63,0,0,0,158.63,0Zm90.15,257.22L232.17,286H199.05a134.24,134.24,0,0,1-80.84,0H85.09L68.47,257.22a133.39,133.39,0,0,1-40.34-69.88L11.55,158.63l16.58-28.72A133.39,133.39,0,0,1,68.47,60L85.09,31.25h33.12a134.24,134.24,0,0,1,80.84,0h33.12L248.78,60a133.47,133.47,0,0,1,40.35,69.88l16.57,28.72-16.57,28.71A133.47,133.47,0,0,1,248.78,257.22Z"/><rect class="cls-1" x="78.14" y="133.66" width="72.69" height="72.69" rx="15.07" transform="translate(-89.3 148.12) rotate(-49.91)"/><rect class="cls-1" x="155.2" y="53.75" width="54.77" height="149.96" rx="23.88" transform="translate(-33.48 185.52) rotate(-49.91)"/><rect class="cls-1" x="130.27" y="194.72" width="72.69" height="38.33" rx="14.77" transform="translate(-104.31 203.62) rotate(-49.91)"/></g></g></svg>